<svg viewBox="0 0 1920 633.06" xmlns="http://www.w3.org/2000/svg" xmlns:xlink="http://www.w3.org/1999/xlink" id="Layer_1" overflow="hidden"><style>
.MsftOfcThm_Background1_Fill_v2 {
 fill:#FFFFFF; 
}
</style>
<defs/><path d="M1898.75 525.51C1897.67 524.73 1896.44 524.04 1894.98 523.37 1870.75 512.37 1701.6 529.48 1636.48 535.89L1636.48 535.89C1636.48 535.89 1558.65 542.85 1538.85 533.31 1523.37 525.85 1519 489.31 1571.62 450.55 1604.87 421.49 1598.99 397.26 1578.65 378.94 1548.82 352.07 1487.89 337.9 1473.62 339.81 1449.62 343.01 1464.82 364.61 1445.19 388.4 1445.19 388.4 1410.66 430.17 1364.93 467.64 1326.19 499.38 1278.81 521.7 1247.64 524.71 1218.06 527.57 1226.87 503.42 1226.87 503.42 1371.82 455.66 1392.38 354.95 1313.38 324.01 1254 300.75 1157.68 412.77 1148.38 500.26 1077.42 533.41 1005.64 550.03 993.37 490.32 993.37 490.32 1139 442.52 1135.31 366.77 1130.31 264.25 1003.52 308.18 902.16 391.22 902.16 391.22 934.62 343.55 984.67 287.74 1031.68 250.64 1078.11 204.04 1120.23 146.44 1189.91 51.14 1137.68-64.56 899.92 279.52 864.63 305.02 805.28 344.77 757.48 361.1 753.79 340.98 743 322.52 723.09 307.29 683.89 277.31 630.23 298.65 582.67 340.43 505.26 398.47 180.4 633.65 96.38 557.63 50.58 516.19 108.96 364.42 214.72 248.12 329.69 121.66 496.53 32.85 537.88 61.48 585.58 94.5 503.13 183.73 469.37 217.08 462.86 223.51 464.45 234.4 472.54 238.68L473.66 239.27C486.64 246.14 502.54 244.6 513.81 235.17 581 178.97 646.12 92.34 587.94 34.17 498.28-55.49 298.48 43.58 160.08 188.93 31.5 323.98-42.15 499.51 25.81 587.2 114.18 701.23 334.67 579.58 487.13 472.74 468.04 519.45 466.43 561.88 495.49 580.37 570.3 627.97 732.87 507.54 756.15 402.1 780.71 396.44 807.66 387.89 836.03 376.03 778.91 465.48 746.72 524.21 730.7 561.86 726.65 571.38 732.24 582.22 742.35 584.45L767.47 589.99C778.09 592.33 789.01 587.74 794.83 578.56 893.38 423.1 1055.45 347.68 1063.66 377.75 1070.02 401.05 922.04 459.68 922.04 459.68 922.04 459.68 901.05 523.41 967.11 572.08 1012.15 605.27 1086.14 586.38 1156.59 553.5 1160.41 560.8 1165.51 567.42 1172.09 573.16 1211.79 607.81 1296.2 579.71 1356.74 538.61 1429.82 489 1485.55 415.89 1485.55 415.89 1501.44 397.29 1508.59 404.82 1513.77 411.01 1518.67 416.86 1522.16 420.94 1507.22 435.95 1445.49 495.23 1462.71 555.51 1499.84 576.01 1547.57 602.37 1612.16 580.28 1691.04 575.31 1772.6 570.17 1846.12 570.43 1865.39 579.85 1884.87 589.27 1899.77 596.33 1914.21 582.14 1928.6 567.87 1913.4 536.96 1898.75 525.5ZM1290.28 389.67C1320.69 403.06 1227.56 447.42 1227.56 447.42 1227.56 447.42 1259.87 376.27 1290.28 389.67ZM560.69 516.69C544.18 499.73 584.55 431.48 626.16 392.37 631.26 397.01 637.41 401.06 644.84 404.13 656.91 409.12 674.55 411.46 696.31 410.62 676.88 464.93 577.58 534.04 560.69 516.68Z" class="MsftOfcThm_Background1_Fill_v2" fill="#FFFFFF"/></svg>